<?xml version="1.0" standalone="no"?>
<!DOCTYPE svg PUBLIC "-//W3C//DTD SVG 20010904//EN"
 "http://www.w3.org/TR/2001/REC-SVG-20010904/DTD/svg10.dtd">
<svg version="1.0" xmlns="http://www.w3.org/2000/svg"
 width="260.000000pt" height="260.000000pt" viewBox="0 0 260.000000 260.000000"
 preserveAspectRatio="xMidYMid meet">
<metadata>
Created by potrace 1.14, written by Peter Selinger 2001-2017
</metadata>
<g transform="translate(0.000000,260.000000) scale(0.100000,-0.100000)"
fill="#000000" stroke="none">
<path d="M1514 2287 c-3 -9 -4 -63 -1 -121 l4 -107 -46 8 c-58 9 -222 9 -281
0 -64 -9 -102 -17 -112 -23 -4 -3 -18 -7 -30 -10 -87 -19 -208 -82 -307 -159
-67 -51 -182 -181 -225 -251 -50 -85 -102 -211 -112 -270 -3 -21 -9 -47 -14
-59 -14 -36 8 -52 82 -59 18 -2 84 -11 146 -20 63 -9 117 -14 122 -11 4 2 10
23 14 46 24 149 160 325 306 396 96 47 182 67 275 65 65 -2 75 -4 147 -22 45
-12 68 -36 54 -58 -3 -4 -1 -25 4 -45 4 -22 4 -39 -1 -43 -5 -3 -7 -10 -4 -15
7 -10 11 -76 20 -319 4 -85 8 -189 10 -230 2 -41 7 -138 10 -215 11 -271 16
-359 20 -364 12 -12 29 29 105 254 45 132 84 247 87 255 3 8 7 21 9 28 1 8 6
21 10 30 4 9 8 22 10 27 5 21 35 111 44 130 5 11 16 44 26 74 19 62 21 61 62
-53 90 -243 189 -486 198 -486 20 0 94 175 108 256 3 16 10 51 15 78 20 108 0
313 -43 441 -56 170 -195 356 -341 460 -56 39 -165 99 -226 123 -19 7 -31 26
-49 74 -12 34 -27 74 -33 88 -6 14 -11 27 -12 30 -1 3 -7 18 -13 33 -7 16 -12
32 -12 37 0 16 -20 21 -26 7z m79 -276 c18 -7 33 -35 71 -133 26 -67 51 -132
56 -143 6 -11 16 -38 24 -60 8 -22 23 -64 35 -93 12 -30 17 -52 12 -50 -5 1
-31 23 -58 48 -51 47 -72 62 -113 82 -64 31 -65 33 -67 168 -2 69 -5 140 -8
158 -6 35 3 40 48 23z"/>
</g>
</svg>
